<svg width="1200" height="330" viewBox="0 0 1200 330" fill="none" xmlns="http://www.w3.org/2000/svg">
  <g transform="translate(0,0) scale(0.6)">
    <path d="M64 64a48 48 0 0 1 48 -48h224a48 48 0 0 1 48 48v144c0 58 -30 112 -80 144l-80 50l-80 -50c-50 -32 -80 -86 -80 -144z" fill="#148CFF"/>
    <path d="M256 120c-28 0 -44 -12 -60 -20c-42 -22 -92 6 -96 64c-2 28 6 52 18 73c9 16 14 33 15 51c4 70 14 156 53 156c21 0 32 -34 36 -52c7 -31 20 -76 48 -76s41 45 48 76c4 18 15 52 36 52c39 0 49 -86 53 -156c1 -18 6 -35 15 -51c12 -21 20 -45 18 -73c-4 -58 -54 -86 -96 -64c-16 8 -32 20 -60 20z" fill="#FFFFFF" transform="translate(0,16)"/>
  </g>
  <g transform="translate(360,55)">
    <text x="0" y="180" font-size="170" font-weight="700"
          font-family="system-ui,-apple-system,'Segoe UI',Roboto,Ubuntu,'Helvetica Neue',Arial,sans-serif"
          fill="#148CFF" letter-spacing="0.5">
      Dentify
    </text>
  </g>
</svg>